<?xml version="1.0" encoding="utf-8"?>
<!-- Generator: Adobe Illustrator 28.2.0, SVG Export Plug-In . SVG Version: 6.00 Build 0)  -->
<svg version="1.1" id="Layer_1" xmlns="http://www.w3.org/2000/svg" xmlns:xlink="http://www.w3.org/1999/xlink" x="0px" y="0px"
	 viewBox="0 0 154.8 68" style="enable-background:new 0 0 154.8 68;" xml:space="preserve">
<style type="text/css">
	.st0{fill:#2F2F31;}
	.st1{fill:#FFFFFF;}
</style>
<g>
	<rect x="0" y="0" class="st0" width="154.8" height="68"/>
	<g>
		<path class="st1" d="M20.6,21.3h6.3V25c0.8-1.3,1.9-2.3,3.3-3.1c1.4-0.8,2.9-1.2,4.6-1.2c2.9,0,5.4,1.2,7.5,3.5
			c2.1,2.3,3.1,5.5,3.1,9.6c0,4.2-1,7.5-3.1,9.9c-2.1,2.3-4.6,3.5-7.5,3.5c-1.4,0-2.7-0.3-3.8-0.8c-1.1-0.6-2.3-1.5-3.6-2.9v12.8
			h-6.7L20.6,21.3L20.6,21.3z M27.2,33.6c0,2.8,0.6,4.9,1.7,6.3c1.1,1.4,2.5,2,4.1,2c1.6,0,2.9-0.6,3.9-1.9c1-1.2,1.6-3.3,1.6-6.1
			c0-2.7-0.5-4.6-1.6-5.9c-1.1-1.3-2.4-1.9-4-1.9c-1.6,0-3,0.6-4.1,1.9C27.8,29.2,27.2,31.1,27.2,33.6z"/>
		<path class="st1" d="M48.2,17.9v-6.2h6.7v6.2H48.2z M48.2,46.7V21.3h6.7v25.3H48.2z"/>
		<path class="st1" d="M82.4,46.7h-6.7V33.7c0-2.7-0.1-4.5-0.4-5.3c-0.3-0.8-0.7-1.4-1.4-1.9c-0.6-0.4-1.4-0.7-2.3-0.7
			c-1.2,0-2.2,0.3-3.1,0.9c-0.9,0.6-1.6,1.5-1.9,2.5c-0.3,1-0.5,3-0.5,5.8v11.5h-6.7V21.3h6.2V25c2.2-2.9,5-4.3,8.4-4.3
			c1.5,0,2.8,0.3,4.1,0.8c1.2,0.5,2.1,1.2,2.8,2c0.6,0.8,1.1,1.8,1.3,2.8c0.2,1,0.4,2.6,0.4,4.5L82.4,46.7L82.4,46.7z"/>
		<path class="st1" d="M86.5,46.7v-35h6.7v18.6l7.8-8.9h8.3l-8.7,9.3l9.3,16.1h-7.2l-6.4-11.4l-3.1,3.3v8.1L86.5,46.7L86.5,46.7z"/>
		<path class="st1" d="M121.5,40.6l3.9,5.5c-2.3,1.1-4.6,1.5-6.8,1.1c-2.2-0.4-4.3-1.6-6.3-3.6c-3.1-3.1-4.4-6.4-3.9-10
			c0.5-2.8,1.9-5.5,4.4-7.9c3-3,6.1-4.5,9.3-4.7c3.2-0.1,6,1,8.4,3.4c2.7,2.7,3.9,5.6,3.7,8.9s-2.2,6.7-5.9,10.3l-11.9-11.9
			c-1.4,1.4-2.1,2.9-2.1,4.4s0.5,2.8,1.6,3.9c0.7,0.7,1.6,1.2,2.5,1.3C119.3,41.5,120.3,41.3,121.5,40.6z M126.5,36.1
			c1.3-1.4,2-2.8,2.1-4.2c0-1.4-0.4-2.6-1.4-3.5c-1-1-2.3-1.5-3.7-1.4c-1.4,0.1-2.8,0.8-4.1,2.1L126.5,36.1z"/>
	</g>
</g>
</svg>
