<?xml version="1.0" encoding="utf-8"?>
<!-- Generator: Adobe Illustrator 25.3.1, SVG Export Plug-In . SVG Version: 6.00 Build 0)  -->
<svg version="1.1" id="Layer_1" xmlns="http://www.w3.org/2000/svg" xmlns:xlink="http://www.w3.org/1999/xlink" x="0px" y="0px"
	 viewBox="0 0 1614.1 708.7" style="enable-background:new 0 0 1614.1 708.7;" xml:space="preserve">
<style type="text/css">
	.st0{fill:#ED6DA6;}
	.st1{fill:#FFFFFF;}
</style>
<rect class="st0" width="1614.1" height="709"/>
<g>
	<path class="st1" d="M214.7,222.4h65.2v38.8c8.5-13.3,19.9-24,34.3-32.3s30.4-12.4,48-12.4c30.7,0,56.7,12,78.1,36.1
		s32.1,57.5,32.1,100.5c0,44.1-10.8,78.4-32.3,102.8c-21.6,24.5-47.7,36.7-78.3,36.7c-14.6,0-27.8-2.9-39.7-8.7
		c-11.8-5.8-24.3-15.7-37.4-29.8v133.1h-69.9L214.7,222.4L214.7,222.4z M283.8,350c0,29.7,5.9,51.6,17.7,65.8
		c11.8,14.2,26.1,21.3,43,21.3c16.2,0,29.8-6.5,40.5-19.5c10.8-13,16.2-34.4,16.2-64c0-27.7-5.6-48.2-16.7-61.7
		c-11.1-13.4-24.9-20.2-41.3-20.2c-17.1,0-31.3,6.6-42.5,19.8C289.5,304.6,283.8,324.1,283.8,350z"/>
	<path class="st1" d="M502.4,186.6v-64.7h69.9v64.7H502.4z M502.4,486.5V222.4h69.9v264.1H502.4z"/>
	<path class="st1" d="M858.6,486.5h-69.8V351.7c0-28.5-1.5-47-4.5-55.3c-3-8.4-7.8-14.9-14.5-19.5s-14.8-7-24.2-7
		c-12.1,0-23,3.3-32.6,9.9s-16.2,15.4-19.8,26.4c-3.6,10.9-5.4,31.2-5.4,60.7v119.6h-69.9V222.4h64.9v38.8
		c23-29.8,52.1-44.8,87.1-44.8c15.4,0,29.5,2.8,42.3,8.3c12.8,5.6,22.4,12.6,29,21.3c6.5,8.6,11.1,18.4,13.7,29.3
		c2.6,10.9,3.9,26.6,3.9,47L858.6,486.5L858.6,486.5z"/>
	<path class="st1" d="M901.6,486.5V121.9h69.9v193.5l81.8-93h86.1l-90.3,96.5l96.7,167.6h-75.3l-66.4-118.6L971.5,402v84.6
		L901.6,486.5L901.6,486.5z"/>
	<path class="st1" d="M1266.2,423.6l41,57.5c-24.4,11.7-48.1,15.5-71.2,11.3s-44.9-16.6-65.4-37.1c-32.5-32.5-45.9-67.1-40.3-103.9
		c4.7-29.3,20-56.9,45.9-82.8c31-31,63.3-47.1,97-48.5c33.7-1.3,62.9,10.3,87.7,35.1c27.8,27.8,40.5,58.9,38.2,93.3
		s-22.7,70.2-61.3,107.4L1214,332.2c-14.3,15-21.7,30.4-22.2,46.2s4.9,29.3,16.3,40.7c7.7,7.7,16.4,12.1,25.8,13.2
		C1243.4,433.1,1254.2,430.4,1266.2,423.6z M1319,376.6c14-14.7,21.1-29.2,21.5-43.7s-4.4-26.8-14.5-36.8
		c-10.8-10.8-23.6-15.8-38.5-15s-29,8-42.4,21.6L1319,376.6z"/>
</g>
</svg>
