<?xml version="1.0" encoding="utf-8"?>
<!-- Generator: Adobe Illustrator 25.0.1, SVG Export Plug-In . SVG Version: 6.00 Build 0)  -->
<svg version="1.1" id="Layer_1" xmlns="http://www.w3.org/2000/svg" xmlns:xlink="http://www.w3.org/1999/xlink" x="0px" y="0px"
	 viewBox="0 0 1614.06 708.66" style="enable-background:new 0 0 1614.06 708.66;" xml:space="preserve">
<style type="text/css">
	.st0{fill:#ED6DA6;}
	.st1{fill:#FFFFFF;}
</style>
<rect class="st0" width="1614.06" height="708.98"/>
<path class="st1" d="M1412.91,677.27v-28.71h17.1c-5.84-3.73-10.59-8.77-14.25-15.12c-3.65-6.36-5.48-13.41-5.48-21.15
	c0-13.51,5.3-24.99,15.89-34.41c10.59-9.42,25.35-14.14,44.27-14.14c19.43,0,34.54,4.75,45.31,14.25c10.78,9.5,16.16,21,16.16,34.52
	c0,6.43-1.28,12.26-3.83,17.48c-2.56,5.22-6.94,10.72-13.15,16.49h58.63v30.79H1412.91z M1469.13,646.81
	c13.08,0,22.74-2.59,28.99-7.78c6.25-5.19,9.37-11.51,9.37-18.96c0-7.16-2.87-13.11-8.6-17.86c-5.73-4.75-15.14-7.12-28.22-7.12
	c-12.2,0-21.26,2.45-27.18,7.34c-5.92,4.9-8.88,10.96-8.88,18.19c0,7.53,2.9,13.77,8.71,18.74
	C1449.13,644.32,1457.73,646.81,1469.13,646.81z"/>
<path class="st1" d="M1397.13,550.52h-28.49v-30.79h28.49V550.52z M1529.29,550.52h-116.38v-30.79h116.38V550.52z"/>
<path class="st1" d="M1529.29,393.53v30.79h-59.4c-12.57,0-20.69,0.66-24.38,1.97c-3.69,1.31-6.56,3.45-8.6,6.41
	c-2.04,2.96-3.07,6.52-3.07,10.68c0,5.33,1.46,10.12,4.38,14.36c2.92,4.24,6.79,7.14,11.62,8.71c4.82,1.57,13.74,2.36,26.74,2.36
	h52.71v30.79h-116.38v-28.6h17.1c-13.15-10.15-19.73-22.94-19.73-38.36c0-6.79,1.22-13,3.67-18.63c2.45-5.62,5.57-9.88,9.37-12.77
	c3.8-2.88,8.11-4.89,12.93-6.03c4.82-1.13,11.73-1.7,20.71-1.7H1529.29z"/>
<path class="st1" d="M1529.29,374.61h-160.65v-30.79h85.26l-40.99-36.05v-37.92l42.52,39.78l73.86-42.63v33.2l-52.27,29.26
	l15.01,14.36h37.26V374.61z"/>
<path class="st1" d="M1501.62,213.93l25.34-18.06c5.17,10.75,6.82,21.21,4.96,31.38c-1.86,10.18-7.31,19.79-16.35,28.83
	c-14.31,14.31-29.58,20.23-45.8,17.74c-12.91-2.07-25.08-8.81-36.5-20.22c-13.64-13.64-20.75-27.88-21.35-42.74
	c-0.59-14.85,4.56-27.73,15.46-38.63c12.24-12.24,25.95-17.86,41.11-16.85c15.16,1.01,30.93,10.01,47.31,27l-54.55,54.55
	c6.61,6.3,13.39,9.57,20.34,9.8c6.95,0.23,12.93-2.16,17.94-7.17c3.41-3.41,5.35-7.21,5.81-11.39S1504.57,219.25,1501.62,213.93z
	 M1480.85,190.68c-6.46-6.15-12.88-9.31-19.26-9.49c-6.38-0.18-11.79,1.95-16.23,6.39c-4.75,4.75-6.95,10.41-6.59,16.97
	c0.36,6.56,3.54,12.79,9.53,18.67L1480.85,190.68z"/>
</svg>
